<svg xmlns="http://www.w3.org/2000/svg" xmlns:xlink="http://www.w3.org/1999/xlink" version="1.1" x="0px" y="0px" viewBox="0 0 64 64" enable-background="new 0 0 64 64" xml:space="preserve"><g><ellipse cx="32" cy="15.1" rx="7.5" ry="7.7"></ellipse><polygon points="51.8,24.3 34.1,31.8 34.1,56.6 51.8,49.9  "></polygon><polygon points="12.2,24.3 12.2,49.9 29.9,56.6 29.9,31.8  "></polygon><path fill="#000000" stroke="#010101" stroke-width="7" stroke-linecap="round" stroke-linejoin="round" stroke-miterlimit="10" d="   M13.6,46.5"></path><path fill="#000000" stroke="#010101" stroke-width="7" stroke-linecap="round" stroke-linejoin="round" stroke-miterlimit="10" d="   M13.6,32.9"></path><g><g><path fill="#000000" d="M4.4,46.6c-1.9,0-3.4-1.5-3.4-3.4v-7.4c0-1.9,1.5-3.4,3.4-3.4s3.4,1.5,3.4,3.4v7.4     C7.7,45.1,6.2,46.6,4.4,46.6z"></path></g><g><path fill="#000000" d="M59.6,46.6c-1.9,0-3.4-1.5-3.4-3.4v-7.4c0-1.9,1.5-3.4,3.4-3.4s3.4,1.5,3.4,3.4v7.4     C63,45.1,61.5,46.6,59.6,46.6z"></path></g></g></g></svg>