<?xml version="1.0" encoding="UTF-8" standalone="no"?>
<svg
   xmlns:dc="http://purl.org/dc/elements/1.1/"
   xmlns:cc="http://creativecommons.org/ns#"
   xmlns:rdf="http://www.w3.org/1999/02/22-rdf-syntax-ns#"
   xmlns:svg="http://www.w3.org/2000/svg"
   xmlns="http://www.w3.org/2000/svg"
   xmlns:sodipodi="http://sodipodi.sourceforge.net/DTD/sodipodi-0.dtd"
   xmlns:inkscape="http://www.inkscape.org/namespaces/inkscape"
   version="1.1"
   x="0px"
   y="0px"
   viewBox="0 0 90 90"
   enable-background="new 0 0 90 90"
   xml:space="preserve"
   id="svg2"
   inkscape:version="0.91 r13725"
   sodipodi:docname="status-icon.svg"><metadata
     id="metadata14"><rdf:RDF><cc:Work
         rdf:about=""><dc:format>image/svg+xml</dc:format><dc:type
           rdf:resource="http://purl.org/dc/dcmitype/StillImage" /></cc:Work></rdf:RDF></metadata><defs
     id="defs12" /><sodipodi:namedview
     pagecolor="#ffffff"
     bordercolor="#666666"
     borderopacity="1"
     objecttolerance="10"
     gridtolerance="10"
     guidetolerance="10"
     inkscape:pageopacity="0"
     inkscape:pageshadow="2"
     inkscape:window-width="1916"
     inkscape:window-height="2121"
     id="namedview10"
     showgrid="false"
     inkscape:zoom="2.6222222"
     inkscape:cx="-8.9618644"
     inkscape:cy="45"
     inkscape:window-x="1920"
     inkscape:window-y="18"
     inkscape:window-maximized="0"
     inkscape:current-layer="svg2" /><ellipse
     id="circle6"
     cy="18.606064"
     cx="45.381351"
     rx="17.526234"
     ry="15.555216" /><path
     inkscape:connector-curvature="0"
     id="path8"
     d="m 45.381352,36.013559 c -20.166088,0 -36.5137766,10.032089 -36.5137766,22.407152 0,6.202983 4.1222676,11.808517 10.7598896,15.866115 l 0,4.10161 0.361898,0.104881 c 0.212075,0.06087 21.213801,6.116831 25.08179,8.636792 l 0.310199,0.200399 0.310199,-0.201335 c 3.866934,-2.519025 24.869715,-8.575924 25.081789,-8.636792 l 0.361899,-0.104882 0,-4.10161 c 6.637622,-4.056661 10.759889,-9.662195 10.759889,-15.866114 0,-12.374127 -16.347688,-22.406216 -36.513776,-22.406216 z m 24.706175,24.56003 c -3.384755,0.237855 -6.048877,2.744707 -6.048877,5.809677 0,3.064971 2.664122,5.571822 6.048877,5.809678 l 0,5.519382 C 67.244038,78.53733 49.743127,83.66247 45.381352,86.188987 41.019577,83.66247 23.518666,78.53733 20.675177,77.712326 l 0,-5.519382 c 3.384755,-0.237856 6.048877,-2.744707 6.048877,-5.809678 0,-3.06497 -2.664122,-5.572758 -6.048877,-5.809677 l 0,-12.388174 24.706175,8.138606 24.706175,-8.138606 0,12.388174 z" /></svg>